<svg xmlns="http://www.w3.org/2000/svg" viewBox="0 0 118.93 112.63"><defs><style>.cls-1{fill:#269af2;}.cls-2{fill:#ff7473;}</style></defs><title>footer-logo</title><g id="Layer_2" data-name="Layer 2"><g id="Layer_1-2" data-name="Layer 1"><path class="cls-1" d="M27.43,100.3q-7.32,0-11.16-2.45a8.18,8.18,0,0,1-3.85-7.39,12.31,12.31,0,0,1,1.09-5.11h0a.75.75,0,0,1,1-.39h0l3,1.29h0a.74.74,0,0,1,.41,1h0A7.55,7.55,0,0,0,17.34,90a4.31,4.31,0,0,0,2.43,3.93q2.41,1.35,7.65,1.35h3.41q1.35,0,2.45-.09a13.59,13.59,0,0,0,1.91-.28,8.71,8.71,0,0,0,1.38-.43,3.46,3.46,0,0,0,.94-.55,2.14,2.14,0,0,0,.52-.65,1.61,1.61,0,0,0,.17-.73,3,3,0,0,0-.17-1,4.19,4.19,0,0,0-.55-1,7.38,7.38,0,0,0-1-1.1q-3-2.75-5.07-4.38a8.2,8.2,0,0,1-1.3-1.29,5.42,5.42,0,0,1-.82-1.43A4.33,4.33,0,0,1,29,80.76a4.13,4.13,0,0,1,.84-2.54,5.23,5.23,0,0,1,2.25-1.65l13.34-5.3.51-.2a.38.38,0,0,1,.52.35v4.44a.38.38,0,0,1-.24.35l-.23.09-11.79,4.6,2,1.7,1.69,1.53q.79.72,1.43,1.36t1.17,1.2a11.46,11.46,0,0,1,1.45,2,14.93,14.93,0,0,1,1.13,2.48A7.05,7.05,0,0,0,45,94.28a4.15,4.15,0,0,0,2.77,1H48a1.23,1.23,0,0,1,.47.09.75.75,0,0,1,.34.29l.18.3a1.23,1.23,0,0,1,.1.44l0,.4q0,.1,0,.76v.36s0,.14,0,.35,0,.36,0,.45,0,.24,0,.43a1.52,1.52,0,0,1-.1.46,2.6,2.6,0,0,1-.2.36.71.71,0,0,1-.32.27,1.21,1.21,0,0,1-.48.08h-.3a8.26,8.26,0,0,1-3.47-.73,8.78,8.78,0,0,1-2.87-2.13q-2.75,2.86-10.55,2.86ZM46.06,69,31.14,75.11a.38.38,0,0,1-.52-.35v-2a.38.38,0,0,1,.24-.35L45.77,66.3a.38.38,0,0,1,.52.35v2A.38.38,0,0,1,46.06,69Z"/><path class="cls-1" d="M62.59,97.9v.68c0,.09,0,.22,0,.38a2.74,2.74,0,0,1-.06.4,2.21,2.21,0,0,1-.12.36.89.89,0,0,1-.21.31,1,1,0,0,1-.31.19,1.1,1.1,0,0,1-.41.07h-.19a6.26,6.26,0,0,1-5.18-2.13q-2.15,2.13-6.4,2.13H47.75a2,2,0,0,1-1.61-.67,2.54,2.54,0,0,1-.58-1.72v-.36a2.33,2.33,0,0,1,.59-1.65,2.08,2.08,0,0,1,1.6-.64H49.6q3.71,0,4-1.78a7.33,7.33,0,0,0,.11-1.4q0-.54-.06-1.35l-.09-1.53-.06-.71.71-.07L57.35,88l.77-.07.06.77.3,3.95a2.92,2.92,0,0,0,.77,2,3,3,0,0,0,2.08.6h.15a1.23,1.23,0,0,1,.47.08.68.68,0,0,1,.33.28,3.65,3.65,0,0,1,.2.36,1.44,1.44,0,0,1,.1.46q0,.3,0,.45t0,.46q0,.31,0,.36Zm-10-9.64A2.65,2.65,0,1,1,50,85.61,2.65,2.65,0,0,1,52.62,88.26Z"/><path class="cls-1" d="M76,97.9v.68c0,.09,0,.22,0,.38a2.74,2.74,0,0,1-.06.4,2.21,2.21,0,0,1-.12.36.89.89,0,0,1-.21.31,1,1,0,0,1-.31.19,1.1,1.1,0,0,1-.41.07H74.7a6.26,6.26,0,0,1-5.18-2.13q-2.15,2.13-6.4,2.13H61.17a2,2,0,0,1-1.61-.67A2.54,2.54,0,0,1,59,97.9v-.36a2.33,2.33,0,0,1,.59-1.65,2.08,2.08,0,0,1,1.6-.64H63q3.71,0,4-1.78a7.33,7.33,0,0,0,.11-1.4q0-.54-.06-1.35L67,89.2,67,88.49l.71-.07L70.77,88l.77-.07.06.77.3,3.95a2.92,2.92,0,0,0,.77,2,3,3,0,0,0,2.08.6h.15a1.23,1.23,0,0,1,.47.08.68.68,0,0,1,.33.28,3.65,3.65,0,0,1,.2.36,1.44,1.44,0,0,1,.1.46q0,.3,0,.45t0,.46q0,.31,0,.36ZM65.34,105a2.65,2.65,0,1,1-2.65-2.65A2.65,2.65,0,0,1,65.34,105Zm5.7,0a2.65,2.65,0,1,1-2.65-2.65A2.65,2.65,0,0,1,71,105Z"/><path class="cls-1" d="M89.42,97.9v.68c0,.09,0,.22,0,.38a2.74,2.74,0,0,1-.06.4,2.21,2.21,0,0,1-.12.36A.89.89,0,0,1,89,100a1,1,0,0,1-.31.19,1.1,1.1,0,0,1-.41.07h-.19a6.26,6.26,0,0,1-5.18-2.13q-2.15,2.13-6.4,2.13H74.58A2,2,0,0,1,73,99.62a2.54,2.54,0,0,1-.58-1.72v-.36A2.33,2.33,0,0,1,73,95.9a2.08,2.08,0,0,1,1.6-.64h1.85q3.71,0,4-1.78a7.33,7.33,0,0,0,.11-1.4q0-.54-.06-1.35l-.09-1.53-.06-.71.71-.07L84.18,88,85,88l.06.77.3,3.95a2.92,2.92,0,0,0,.77,2,3,3,0,0,0,2.08.6h.15a1.23,1.23,0,0,1,.47.08.68.68,0,0,1,.33.28,3.65,3.65,0,0,1,.2.36,1.44,1.44,0,0,1,.1.46q0,.3,0,.45t0,.46q0,.31,0,.36ZM78.63,105A2.65,2.65,0,1,1,76,102.32,2.65,2.65,0,0,1,78.63,105Zm5.7.12a2.65,2.65,0,1,1-2.65-2.65A2.65,2.65,0,0,1,84.33,105.09ZM81.55,110a2.65,2.65,0,1,1-2.65-2.65A2.65,2.65,0,0,1,81.55,110Z"/><path class="cls-1" d="M90.86,95.26a26.26,26.26,0,0,0,2.87-.14,12.6,12.6,0,0,0,2.1-.38,5.3,5.3,0,0,0,1.38-.6,2.4,2.4,0,0,0,.79-.75,1.65,1.65,0,0,0,.23-.86,4.43,4.43,0,0,0-1.7-3.11l-1.88-1.71q-.89-.8-1.68-1.46T91.46,85a7.1,7.1,0,0,1-1.79-2A4.5,4.5,0,0,1,89,80.76a4.13,4.13,0,0,1,.84-2.54,5.14,5.14,0,0,1,1-1,5.79,5.79,0,0,1,1.25-.69l13.36-5.3.23-.09a.57.57,0,0,1,.78.53v3.91h0a.74.74,0,0,1-.47.69h0l-11.79,4.6a75.1,75.1,0,0,1,6.25,5.78A8.89,8.89,0,0,1,103.08,93a6,6,0,0,1-3.21,5.49q-3.15,1.81-9,1.81H88a2,2,0,0,1-1.62-.67,2.52,2.52,0,0,1-.59-1.72v-.36a2.3,2.3,0,0,1,.6-1.66A2.12,2.12,0,0,1,88,95.26Z"/><path class="cls-1" d="M33.21,39.21A16.56,16.56,0,0,1,46.52,23a11.49,11.49,0,0,1,15.94-9,27.09,27.09,0,0,1,7-8.21,27,27,0,0,0-40.21,8.21,11.49,11.49,0,0,0-15.94,9,16.55,16.55,0,0,0,3.24,32.79H49.76A16.55,16.55,0,0,1,33.21,39.21Z"/><path class="cls-2" d="M108.55,28.15a24.56,24.56,0,0,0-46-11.64A10.46,10.46,0,0,0,48,24.75a15.08,15.08,0,0,0,2.95,29.86h54.59a13.4,13.4,0,0,0,3-26.46Z"/></g></g></svg>