<svg xmlns="http://www.w3.org/2000/svg" viewBox="0 0 259.98 67.2"><defs><style>.cls-1{fill:#269af2;}.cls-2{fill:#ff7473;}</style></defs><title>logo</title><g id="Layer_2" data-name="Layer 2"><g id="Layer_1-2" data-name="Layer 1"><path class="cls-1" d="M21.76,49.32q-10.61,0-16.18-3.55T0,35.05a17.85,17.85,0,0,1,1.57-7.41h0A1.08,1.08,0,0,1,3,27.08H3l4.39,1.87h0A1.07,1.07,0,0,1,8,30.33H8a10.94,10.94,0,0,0-.84,4,6.25,6.25,0,0,0,3.53,5.7q3.5,2,11.1,2H26.7q2,0,3.55-.14A19.7,19.7,0,0,0,33,41.48a12.62,12.62,0,0,0,2-.62,5,5,0,0,0,1.36-.8,3.1,3.1,0,0,0,.76-.94,2.33,2.33,0,0,0,.24-1.06,4.29,4.29,0,0,0-.24-1.41,6.08,6.08,0,0,0-.8-1.49,10.7,10.7,0,0,0-1.42-1.6q-4.29-4-7.35-6.35a11.89,11.89,0,0,1-1.89-1.87,7.86,7.86,0,0,1-1.19-2.08A6.28,6.28,0,0,1,24.06,21a6,6,0,0,1,1.22-3.69,7.59,7.59,0,0,1,3.26-2.39L47.88,7.24,48.62,7a.55.55,0,0,1,.76.51V13.9a.55.55,0,0,1-.35.51l-.33.13L31.61,21.22q1.52,1.3,2.84,2.47T36.9,25.9q1.14,1,2.08,2t1.7,1.74a16.62,16.62,0,0,1,2.1,2.89,21.64,21.64,0,0,1,1.64,3.59,10.22,10.22,0,0,0,2.77,4.52,6,6,0,0,0,4,1.42h.43a1.78,1.78,0,0,1,.68.12,1.09,1.09,0,0,1,.49.42q.16.25.26.44a1.78,1.78,0,0,1,.15.64l.05.58q0,.15,0,1.1v.52s0,.2,0,.5,0,.52,0,.65,0,.34-.05.62a2.21,2.21,0,0,1-.15.66,3.76,3.76,0,0,1-.28.52,1,1,0,0,1-.46.39,1.75,1.75,0,0,1-.69.12h-.43a12,12,0,0,1-5-1.06A12.74,12.74,0,0,1,42,45.17q-4,4.15-15.3,4.15Zm27-45.39L27.14,12.8a.55.55,0,0,1-.76-.51V9.42a.55.55,0,0,1,.34-.51L48.35,0a.55.55,0,0,1,.76.51V3.43A.55.55,0,0,1,48.77,3.93Z"/><path class="cls-1" d="M72.74,45.85v1c0,.14,0,.32,0,.56a4,4,0,0,1-.08.58,3.2,3.2,0,0,1-.18.52,1.29,1.29,0,0,1-.3.45,1.44,1.44,0,0,1-.45.27,1.59,1.59,0,0,1-.6.11h-.27q-5,0-7.51-3.09Q60.2,49.32,54,49.32H51.22a2.92,2.92,0,0,1-2.33-1,3.69,3.69,0,0,1-.84-2.5v-.52a3.37,3.37,0,0,1,.85-2.39A3,3,0,0,1,51.22,42h2.69q5.37,0,5.86-2.58a10.63,10.63,0,0,0,.16-2q0-.79-.08-2l-.14-2.22-.08-1,1-.11,4.48-.54,1.11-.11.08,1.11.43,5.72a4.23,4.23,0,0,0,1.11,2.88,4.37,4.37,0,0,0,3,.87h.22a1.78,1.78,0,0,1,.68.12,1,1,0,0,1,.47.41,5.29,5.29,0,0,1,.28.52,2.08,2.08,0,0,1,.15.66q0,.43.05.65t0,.66q0,.45,0,.53Zm-14.46-14A3.85,3.85,0,1,1,54.43,28,3.85,3.85,0,0,1,58.28,31.88Z"/><path class="cls-1" d="M92.19,45.85v1c0,.14,0,.32,0,.56a4,4,0,0,1-.08.58,3.2,3.2,0,0,1-.18.52,1.29,1.29,0,0,1-.3.45,1.44,1.44,0,0,1-.45.27,1.59,1.59,0,0,1-.6.11h-.27q-5,0-7.51-3.09-3.12,3.09-9.28,3.09H70.67a2.92,2.92,0,0,1-2.33-1,3.69,3.69,0,0,1-.84-2.5v-.52a3.37,3.37,0,0,1,.85-2.39A3,3,0,0,1,70.67,42h2.69q5.37,0,5.86-2.58a10.63,10.63,0,0,0,.16-2q0-.79-.08-2l-.14-2.22-.08-1,1-.11,4.48-.54,1.11-.11.08,1.11.43,5.72a4.23,4.23,0,0,0,1.11,2.88,4.37,4.37,0,0,0,3,.87h.22a1.78,1.78,0,0,1,.68.12,1,1,0,0,1,.47.41,5.29,5.29,0,0,1,.28.52,2.08,2.08,0,0,1,.15.66q0,.43.05.65t0,.66q0,.45,0,.53ZM76.72,56.11a3.85,3.85,0,1,1-3.85-3.85A3.85,3.85,0,0,1,76.72,56.11Zm8.26,0a3.85,3.85,0,1,1-3.85-3.85A3.85,3.85,0,0,1,85,56.11Z"/><path class="cls-1" d="M111.64,45.85v1c0,.14,0,.32,0,.56a4,4,0,0,1-.08.58,3.2,3.2,0,0,1-.18.52,1.29,1.29,0,0,1-.3.45,1.44,1.44,0,0,1-.45.27,1.59,1.59,0,0,1-.6.11h-.27q-5,0-7.51-3.09-3.12,3.09-9.28,3.09H90.13a2.92,2.92,0,0,1-2.33-1,3.69,3.69,0,0,1-.84-2.5v-.52a3.37,3.37,0,0,1,.85-2.39A3,3,0,0,1,90.13,42h2.69q5.37,0,5.86-2.58a10.63,10.63,0,0,0,.16-2q0-.79-.08-2l-.14-2.22-.08-1,1-.11,4.48-.54,1.11-.11.08,1.11.43,5.72a4.23,4.23,0,0,0,1.11,2.88,4.37,4.37,0,0,0,3,.87H110a1.78,1.78,0,0,1,.68.12,1,1,0,0,1,.47.41,5.29,5.29,0,0,1,.28.52,2.08,2.08,0,0,1,.15.66q0,.43.05.65t0,.66q0,.45,0,.53ZM96,56.11a3.85,3.85,0,1,1-3.85-3.85A3.85,3.85,0,0,1,96,56.11Zm8.26.17a3.85,3.85,0,1,1-3.85-3.85A3.85,3.85,0,0,1,104.25,56.28Zm-4,7.07a3.85,3.85,0,1,1-3.85-3.85A3.85,3.85,0,0,1,100.23,63.35Z"/><path class="cls-1" d="M113.73,42a38.07,38.07,0,0,0,4.16-.2,18.26,18.26,0,0,0,3-.56,7.68,7.68,0,0,0,2-.87,3.48,3.48,0,0,0,1.14-1.09,2.4,2.4,0,0,0,.34-1.25q0-2.2-2.47-4.5-1.44-1.33-2.73-2.48T116.78,29q-1.15-1-2.18-1.75a10.3,10.3,0,0,1-2.59-2.9A6.52,6.52,0,0,1,111.1,21a6,6,0,0,1,1.22-3.69,7.45,7.45,0,0,1,1.44-1.38,8.4,8.4,0,0,1,1.82-1l19.37-7.68.33-.13a.83.83,0,0,1,1.14.76v5.66h0a1.08,1.08,0,0,1-.68,1h0l-17.09,6.67a108.88,108.88,0,0,1,9.06,8.38,12.88,12.88,0,0,1,3.74,9.14,8.75,8.75,0,0,1-4.65,8q-4.57,2.62-13,2.62H109.6a3,3,0,0,1-2.35-1,3.65,3.65,0,0,1-.85-2.5v-.52a3.33,3.33,0,0,1,.87-2.4A3.08,3.08,0,0,1,109.6,42Z"/><path class="cls-1" d="M174.26,39.78a16.56,16.56,0,0,1,13.32-16.23,11.49,11.49,0,0,1,15.94-9,27.09,27.09,0,0,1,7-8.21,27,27,0,0,0-40.21,8.21,11.49,11.49,0,0,0-15.94,9,16.55,16.55,0,0,0,3.24,32.79h33.21A16.55,16.55,0,0,1,174.26,39.78Z"/><path class="cls-2" d="M249.61,28.73a24.56,24.56,0,0,0-46-11.64A10.46,10.46,0,0,0,189,25.33,15.08,15.08,0,0,0,192,55.19h54.59a13.4,13.4,0,0,0,3-26.46Z"/></g></g></svg>